<svg xmlns="http://www.w3.org/2000/svg" width="1024" height="1024" viewBox="0 0 1024 1024" version="1.1"><path d="M 793.521 390.504 C 786.933 394.077, 781.258 397, 780.911 397 C 780.564 397, 778.642 398.545, 776.640 400.433 C 771.595 405.190, 771.504 408.304, 775.979 422.907 C 780.307 437.027, 782.734 446.926, 784.407 457.282 C 785.227 462.352, 786.465 469.875, 787.159 474 C 787.943 478.658, 788.436 491.411, 788.461 507.655 C 788.482 522.039, 788.832 533.604, 789.239 533.353 C 789.645 533.102, 789.710 533.592, 789.384 534.442 C 789.057 535.293, 788.388 535.740, 787.895 535.435 C 787.403 535.131, 786.944 536.259, 786.875 537.941 C 786.806 539.623, 786.666 541.337, 786.564 541.750 C 786.462 542.163, 786.021 545.425, 785.585 549 C 784.076 561.367, 777.432 586.969, 772.416 599.744 C 770.957 603.460, 768.635 609.425, 767.257 613 C 765.879 616.575, 762.766 623.680, 760.340 628.788 C 757.914 633.897, 756.240 638.579, 756.619 639.193 C 757.035 639.865, 756.856 640.029, 756.170 639.605 C 754.719 638.708, 750.794 644.966, 751.551 646.970 C 751.856 647.778, 751.784 648.118, 751.392 647.725 C 750.999 647.332, 749.625 648.559, 748.339 650.452 C 745.765 654.239, 745.389 655.496, 747.155 654.405 C 747.876 653.959, 748.037 654.131, 747.585 654.862 C 747.187 655.506, 746.498 655.808, 746.053 655.533 C 744.941 654.846, 739.777 662.830, 740.537 664.060 C 740.873 664.604, 740.655 664.926, 740.053 664.775 C 739.450 664.624, 737.429 666.513, 735.563 668.973 C 732.836 672.566, 732.360 673.845, 733.139 675.473 C 734.061 677.397, 734.035 677.407, 732.633 675.666 C 731.225 673.917, 731.073 673.959, 729.350 676.588 C 726.603 680.781, 708.156 701.147, 704.155 704.405 C 696.519 710.622, 693.179 714.334, 693.540 716.206 C 693.758 717.341, 693.655 717.989, 693.311 717.644 C 692.966 717.299, 691.968 717.568, 691.092 718.241 C 690.117 718.991, 690.238 718.601, 691.405 717.233 C 694.456 713.657, 692.529 714.622, 685.611 720.136 C 681.668 723.279, 679.370 725.801, 679.691 726.636 C 679.978 727.386, 679.689 728, 679.048 728 C 678.407 728, 678.160 727.550, 678.500 727 C 679.655 725.131, 677.467 725.991, 673.978 728.778 C 672.065 730.305, 668.846 732.653, 666.825 733.995 C 664.804 735.337, 663.349 736.756, 663.592 737.149 C 663.834 737.541, 663.506 738.187, 662.862 738.585 C 662.131 739.037, 661.959 738.876, 662.405 738.155 C 663.519 736.351, 662.681 736.710, 655.352 741.174 C 615.077 765.707, 572.882 778.426, 521.500 781.522 C 516 781.853, 511.350 782.547, 511.167 783.062 C 510.983 783.578, 509.633 783.968, 508.167 783.930 C 505.778 783.867, 505.708 783.770, 507.500 783 C 508.939 782.382, 507.747 782.086, 503.250 781.945 C 499.813 781.838, 496.663 781.671, 496.250 781.573 C 495.837 781.476, 490.775 781.004, 485 780.524 C 479.225 780.044, 474.275 779.594, 474 779.525 C 473.725 779.455, 470.800 779.051, 467.500 778.628 C 459.864 777.648, 435.347 771.765, 427.513 769.033 C 424 767.807, 420.282 767.162, 418.513 767.470 C 416.662 767.792, 416.181 767.700, 417.265 767.229 C 418.587 766.655, 417.084 765.748, 411.265 763.610 C 406.994 762.041, 401.025 759.627, 398 758.245 C 384.033 751.866, 381.934 751.081, 380.273 751.617 C 379.128 751.986, 378.920 751.883, 379.685 751.326 C 380.473 750.752, 377.989 748.962, 372.266 745.981 C 367.534 743.517, 362.051 740.406, 360.081 739.069 C 356.807 736.846, 353.422 735.896, 348.728 735.884 C 347.754 735.881, 347.201 735.484, 347.499 735.001 C 347.798 734.518, 347.245 733.659, 346.271 733.092 C 345.297 732.525, 344.853 732.047, 345.285 732.030 C 345.717 732.014, 347.194 732.736, 348.566 733.635 C 353.035 736.563, 352.097 734.453, 347.485 731.202 C 345.018 729.464, 343 727.670, 343 727.216 C 343 726.762, 348.625 719.231, 355.500 710.480 C 362.375 701.729, 368 694.225, 368 693.804 C 368 692.842, 368.061 692.856, 341 687.531 C 328.625 685.097, 314.225 682.188, 309 681.068 C 297.825 678.672, 296.674 678.590, 297.515 680.250 C 297.863 680.938, 297.537 680.760, 296.790 679.855 C 296.007 678.906, 291.849 677.486, 286.966 676.501 C 245.792 668.194, 237.090 666.577, 236.538 667.129 C 236.004 667.663, 246.008 703.251, 246.903 704 C 247.231 704.275, 247.629 705.400, 247.787 706.500 C 248.261 709.800, 251.875 722.602, 251.940 721.211 C 251.989 720.158, 252.256 720.158, 253.395 721.211 C 254.969 722.665, 254.455 724.399, 252.761 723.352 C 252.022 722.896, 251.905 723.301, 252.406 724.586 C 252.816 725.639, 254.707 732.350, 256.609 739.500 C 258.510 746.650, 261.174 756.100, 262.527 760.500 C 264.721 767.632, 268.131 779.573, 272.666 796 C 273.501 799.025, 274.365 801.685, 274.586 801.911 C 275.149 802.486, 279 798.887, 279 797.786 C 279 797.289, 278.480 797.203, 277.845 797.595 C 277.124 798.041, 276.963 797.869, 277.415 797.138 C 277.813 796.494, 278.521 796.204, 278.989 796.493 C 280.177 797.227, 284.116 791.997, 283.332 790.728 C 282.979 790.158, 283.145 789.972, 283.700 790.315 C 285.060 791.155, 289.388 786.437, 288.530 785.049 C 288.149 784.433, 288.432 784.071, 289.176 784.225 C 289.909 784.377, 290.351 783.830, 290.167 783 C 289.983 782.175, 290.175 781.842, 290.592 782.259 C 291.471 783.138, 296.016 779.177, 295.967 777.576 C 295.948 776.984, 295.048 777.562, 293.967 778.861 C 292.885 780.159, 292 780.910, 292 780.529 C 292 779.075, 299.267 771.047, 300.111 771.569 C 300.599 771.870, 301.943 770.516, 303.098 768.559 C 304.253 766.601, 305.603 765, 306.099 765 C 306.594 765, 307 764.540, 307 763.977 C 307 763.414, 305.763 763.687, 304.250 764.582 C 302.738 765.478, 302.203 765.601, 303.062 764.855 C 303.921 764.110, 304.919 762.712, 305.281 761.750 C 305.962 759.933, 310 759.265, 310 760.969 C 310 761.501, 309.212 761.675, 308.250 761.355 C 307.051 760.956, 307.301 761.516, 309.047 763.136 C 310.448 764.436, 311 765.098, 310.273 764.607 C 307.249 762.565, 308.223 764.933, 311.406 767.361 C 314.868 770.001, 316.572 770.734, 315.603 769.167 C 315.320 768.708, 315.736 768.333, 316.528 768.333 C 317.532 768.333, 317.668 768.696, 316.976 769.529 C 316.022 770.678, 321.478 774.684, 341.051 787.205 C 346.884 790.937, 354.459 795, 355.583 795 C 355.947 795, 355.627 794.212, 354.872 793.250 C 353.630 791.666, 353.665 791.630, 355.239 792.863 C 356.195 793.613, 356.702 794.674, 356.364 795.220 C 355.983 795.837, 356.651 795.959, 358.125 795.542 C 359.803 795.066, 360.090 795.152, 359.104 795.834 C 357.999 796.598, 358.312 797.110, 360.613 798.300 C 362.210 799.126, 364.413 799.958, 365.508 800.151 C 366.604 800.343, 367.725 800.778, 368 801.118 C 369.795 803.337, 404.617 817.361, 406.519 816.631 C 407.263 816.346, 408.012 816.470, 408.185 816.907 C 409.005 818.979, 432.335 825.203, 453 828.864 C 491.398 835.665, 535.980 835.284, 573 827.837 C 578.775 826.675, 583.725 825.449, 584 825.113 C 584.275 824.776, 586.300 824.363, 588.500 824.195 C 596.028 823.621, 629.437 812.516, 628.449 810.917 C 628.145 810.425, 628.610 810.297, 629.484 810.632 C 630.357 810.967, 633.868 810.007, 637.286 808.499 C 647.351 804.059, 658.375 799.008, 660.147 798.025 C 661.052 797.523, 666.002 794.785, 671.147 791.941 C 684.706 784.446, 694.124 778.009, 693.354 776.763 C 692.963 776.131, 693.161 775.982, 693.837 776.399 C 695.217 777.252, 704.074 771.380, 703.737 769.836 C 703.607 769.239, 704.175 768.547, 705 768.299 C 706.333 767.898, 706.333 767.976, 705 769 C 704.175 769.634, 704.053 770.006, 704.728 769.826 C 710.061 768.410, 750.607 732.791, 749.297 730.672 C 748.964 730.132, 749.140 729.969, 749.690 730.308 C 750.610 730.877, 762.245 718.974, 765.872 713.754 C 766.734 712.514, 768.172 710.825, 769.067 710 C 772.678 706.676, 777.101 699.972, 776.415 698.863 C 775.991 698.176, 776.122 697.957, 776.733 698.335 C 778.107 699.184, 786.300 688.295, 785.393 686.826 C 784.992 686.178, 785.134 685.965, 785.722 686.328 C 786.958 687.092, 789.593 683.354, 798.938 667.573 C 805.921 655.780, 807.093 653.207, 804.845 654.595 C 804.108 655.051, 803.963 654.868, 804.446 654.088 C 804.861 653.416, 805.461 653.127, 805.779 653.445 C 807.031 654.698, 818.398 629.453, 817.347 627.753 C 816.961 627.128, 817.166 626.985, 817.845 627.405 C 818.536 627.832, 819 627.468, 819 626.500 C 819 625.532, 818.536 625.168, 817.845 625.595 C 817.124 626.041, 816.963 625.869, 817.415 625.138 C 817.813 624.494, 818.499 624.191, 818.941 624.464 C 820.992 625.731, 832.227 587.513, 835.393 568.500 C 835.668 566.850, 836.566 561.584, 837.388 556.797 C 838.210 552.010, 839.437 538.060, 840.113 525.797 C 842.172 488.467, 838.759 454.663, 829.027 416 C 825.158 400.632, 824.920 399.931, 823.799 400.624 C 823.137 401.033, 822.973 400.853, 823.390 400.178 C 824.745 397.985, 821.844 390.589, 818.330 387.274 C 815.424 384.534, 814.094 384.001, 810.179 384.004 C 806.321 384.008, 803.398 385.148, 793.521 390.504" stroke="none" fill="#00c7d4" fill-rule="evenodd"/><path d="M 469 176.138 C 464.875 176.616, 457.450 177.671, 452.500 178.481 C 447.550 179.292, 441.700 180.224, 439.500 180.553 C 437.300 180.882, 429.425 182.660, 422 184.505 C 391.438 192.098, 362.956 203.858, 336.181 219.940 C 325.812 226.167, 324.364 226.839, 325.595 224.845 C 326.041 224.124, 325.869 223.963, 325.138 224.415 C 324.494 224.813, 324.202 225.518, 324.489 225.982 C 324.966 226.754, 309.919 238, 308.410 238 C 308.050 238, 308.373 237.213, 309.128 236.250 C 310.376 234.659, 310.339 234.626, 308.726 235.893 C 307.750 236.658, 307.184 237.517, 307.467 237.800 C 308.135 238.468, 306.039 241, 304.819 241 C 304.303 241, 304.206 240.438, 304.601 239.750 C 305.019 239.024, 304.939 238.849, 304.410 239.333 C 303.910 239.792, 303.493 240.467, 303.485 240.833 C 303.455 242.119, 301.872 244, 300.819 244 C 300.185 244, 300.310 243.293, 301.128 242.250 C 302.370 240.666, 302.335 240.630, 300.761 241.863 C 299.805 242.613, 299.237 243.575, 299.501 244.001 C 299.984 244.782, 291.796 252, 290.427 252 C 290.022 252, 290.544 250.987, 291.588 249.750 C 293.302 247.717, 293.221 247.734, 290.747 249.921 C 289.240 251.252, 288.237 252.571, 288.518 252.851 C 289.179 253.513, 283.932 259, 282.639 259 C 282.096 259, 282.742 257.762, 284.076 256.250 L 286.500 253.500 283.754 255.921 C 282.244 257.252, 281.247 258.580, 281.539 258.872 C 281.831 259.164, 276.265 265.275, 269.169 272.452 C 252.011 289.806, 240.955 303.280, 228.508 322 C 198.166 367.637, 182.352 412.386, 175.852 471 C 173.984 487.848, 174.241 527.320, 176.334 545 C 179.290 569.972, 188.038 609.303, 192.789 618.987 C 194.893 623.275, 200.266 627, 204.347 627 C 207.895 627, 230.190 615.215, 235.968 610.285 C 238.041 608.517, 239.908 607.243, 240.118 607.454 C 241.475 608.819, 239.641 594.265, 237.557 587.130 C 234.058 575.149, 230.422 557.700, 228.477 543.557 C 226.833 531.600, 226.052 489.335, 227.312 480.500 C 227.626 478.300, 228.166 474.025, 228.513 471 C 230.642 452.433, 234.291 436.797, 242.982 409 C 244.509 404.116, 246.307 401.071, 247.301 401.686 C 247.879 402.043, 248 401.809, 247.583 401.135 C 246.500 399.381, 248.554 393.879, 255.474 380 C 264.296 362.305, 271.061 351.257, 281.338 337.762 C 284.579 333.507, 287.598 330.251, 288.046 330.529 C 288.495 330.806, 289.187 330.506, 289.585 329.862 C 290.037 329.131, 289.876 328.959, 289.155 329.405 C 288.520 329.797, 288 329.701, 288 329.191 C 288 327.707, 309.021 305.092, 316.760 298.250 C 323.700 292.115, 326.588 290.288, 323.872 293.750 C 322.630 295.334, 322.665 295.370, 324.239 294.137 C 325.195 293.387, 325.757 292.417, 325.488 291.981 C 324.973 291.147, 331.001 285.912, 339.634 279.696 C 344.908 275.899, 346.656 275.129, 345.405 277.155 C 344.959 277.876, 345.131 278.037, 345.862 277.585 C 346.506 277.187, 346.780 276.453, 346.471 275.953 C 345.467 274.329, 365.229 262.405, 367.054 263.533 C 367.602 263.872, 367.926 263.605, 367.775 262.941 C 367.420 261.381, 385.020 252.479, 401 246.137 C 459.126 223.067, 531.984 221.238, 593 241.316 C 617.983 249.537, 636.546 258.315, 658.924 272.493 C 668.872 278.795, 670.871 280.450, 669.919 281.598 C 668.354 283.483, 667.932 283.364, 668.691 281.250 C 669.367 279.364, 669.210 279.473, 666.967 282.442 C 666.050 283.656, 665.968 284.103, 666.750 283.633 C 667.438 283.220, 668 283.267, 668 283.738 C 668 284.968, 660.477 292.144, 659.848 291.514 C 659.558 291.225, 658.461 292.003, 657.411 293.244 L 655.500 295.500 657.750 293.595 C 662.394 289.663, 659.730 293.467, 652 301.806 C 647.600 306.552, 644 310.748, 644 311.129 C 644 311.511, 644.788 311.696, 645.750 311.540 C 646.712 311.384, 647.950 311.599, 648.500 312.017 C 649.400 312.702, 675.275 318.817, 706 325.606 C 712.325 327.004, 724.925 329.866, 734 331.966 C 749.733 335.607, 765.552 339.098, 772.900 340.552 C 775.814 341.129, 776.208 340.985, 775.657 339.550 C 775.304 338.628, 773.601 332.615, 771.872 326.187 C 768.057 311.997, 766.755 307.233, 759.526 281 C 756.419 269.725, 750.343 247.366, 746.024 231.314 C 741.705 215.262, 737.649 201.312, 737.010 200.314 C 736.049 198.812, 735.938 198.790, 736.369 200.186 C 736.940 202.039, 733.325 207.319, 732.033 206.521 C 731.590 206.246, 730.613 206.805, 729.863 207.761 C 728.630 209.335, 728.666 209.370, 730.250 208.128 C 733.609 205.493, 731.949 208.286, 724.909 217.114 C 721.009 222.004, 717.460 225.784, 717.022 225.514 C 716.585 225.243, 715.613 225.805, 714.863 226.761 C 713.630 228.335, 713.666 228.370, 715.250 227.128 C 717.929 225.026, 717.339 226.785, 713.912 231.111 C 712.214 233.255, 710.445 234.775, 709.981 234.488 C 709.518 234.202, 708.813 234.494, 708.415 235.138 C 707.963 235.869, 708.124 236.041, 708.845 235.595 C 710.366 234.656, 710.332 236.268, 708.800 237.800 C 706.732 239.868, 704.730 239.166, 695.991 233.313 C 676.724 220.407, 644.384 203.713, 626.948 197.673 C 624.502 196.825, 618.675 194.727, 614 193.009 C 603.467 189.139, 574.724 181.720, 561.979 179.582 C 543.153 176.424, 523.756 175.038, 500 175.154 C 487.075 175.217, 473.125 175.660, 469 176.138" stroke="none" fill="#006fa5" fill-rule="evenodd"/><path d="M 455.750 318.750 C 482.288 318.898, 525.713 318.898, 552.250 318.750 C 578.788 318.602, 557.075 318.480, 504 318.480 C 450.925 318.480, 429.213 318.602, 455.750 318.750 M 374.756 528.451 C 365.170 530.568, 356.202 535.609, 349 542.930 C 341.317 550.740, 337.895 556.716, 334.941 567.482 C 333.110 574.157, 332.841 577.222, 333.231 586.952 C 333.922 604.150, 338.116 614.645, 348.984 626.373 C 354.823 632.673, 360.357 636.432, 368.740 639.791 L 375.500 642.500 501.769 642.772 C 641.359 643.073, 633.658 643.396, 646.500 636.705 C 649.915 634.926, 655.321 630.711, 659.049 626.920 C 670.177 615.603, 675.237 602.349, 675.241 584.509 C 675.245 566.826, 670.371 554.334, 659.027 542.952 C 652.853 536.758, 648.184 533.893, 636.500 529.130 C 632.883 527.656, 620.445 527.485, 506.500 527.341 C 407.926 527.217, 379.250 527.458, 374.756 528.451 M 604 565.602 C 595.480 568.165, 590 575.623, 590 584.652 C 590 601.562, 609.977 610.861, 622.563 599.810 C 624.509 598.102, 625.869 596.101, 625.586 595.364 C 625.303 594.627, 625.562 594.131, 626.161 594.262 C 626.760 594.393, 627.927 592.526, 628.754 590.114 C 629.993 586.499, 630.051 584.805, 629.082 580.477 C 628.436 577.589, 627.028 574.430, 625.954 573.458 C 624.879 572.486, 624 572.055, 624 572.500 C 624 572.945, 623.111 572.505, 622.024 571.521 C 620.937 570.538, 620.276 569.362, 620.556 568.909 C 621.245 567.794, 616.304 565.401, 612 564.765 C 610.075 564.480, 606.475 564.857, 604 565.602" stroke="none" fill="#335d77" fill-rule="evenodd"/><path d="M 486 173.662 C 467.917 174.433, 441.344 178.395, 422.500 183.130 C 408.883 186.552, 387.250 193.454, 385 195.095 C 383.786 195.980, 383.881 196.055, 385.500 195.486 C 428.517 180.378, 460.835 174.675, 503 174.751 C 535.914 174.811, 558.622 177.638, 589.500 185.518 C 598.850 187.904, 607.400 190.148, 608.500 190.504 C 610.018 190.995, 610.138 190.921, 609 190.198 C 606.787 188.792, 587.252 183.537, 573.500 180.647 C 556.945 177.168, 541.422 175.166, 522 174.005 C 506.337 173.068, 501.112 173.018, 486 173.662 M 331.903 221.294 C 327.281 224.206, 322.150 227.453, 320.500 228.511 C 318.850 229.568, 311.650 234.805, 304.500 240.147 C 259.114 274.061, 223.559 318.486, 200.172 370.500 C 194.445 383.237, 188.778 398.835, 189.305 400.412 C 189.504 401.011, 191.160 397, 192.985 391.500 C 201.354 366.271, 220.900 330.040, 238.842 306.500 C 263.681 273.912, 301.332 240.115, 334.250 220.860 C 340.100 217.438, 341.995 216, 340.653 216 C 340.462 216, 336.524 218.382, 331.903 221.294 M 453.500 231.657 C 452.400 231.891, 447.900 232.764, 443.500 233.597 C 433.465 235.499, 414.283 241.142, 402.500 245.659 C 380.745 254, 347.596 272.590, 336 282.953 C 334.075 284.673, 336.325 283.376, 341 280.071 C 373.874 256.827, 408.721 241.657, 447 233.924 C 454.425 232.424, 459.375 231.204, 458 231.214 C 456.625 231.224, 454.600 231.423, 453.500 231.657 M 323.903 292.396 C 300.537 312.586, 282.736 333.446, 267.492 358.500 C 260.729 369.616, 250.075 390.702, 247.421 398.224 C 244.857 405.490, 246.527 403.197, 249.965 394.729 C 260.623 368.483, 280.174 338.304, 301.303 315.489 C 310.222 305.858, 314.534 301.757, 329.386 288.779 C 331.099 287.283, 332.231 286.045, 331.903 286.029 C 331.574 286.013, 327.974 288.878, 323.903 292.396 M 395.103 320.547 C 383.282 323.111, 372.040 332.074, 366.555 343.308 C 363.685 349.186, 363.407 350.619, 354.510 405.500 C 350.943 427.500, 345.791 459.225, 343.060 476 C 338.704 502.763, 336 521.309, 336 524.427 C 336 524.965, 337.688 523.804, 339.750 521.846 C 347.138 514.833, 359.853 507.616, 370.552 504.362 C 376.158 502.658, 383.810 502.554, 503.500 502.570 C 620.840 502.585, 630.990 502.718, 636.937 504.320 C 646.991 507.029, 661.136 514.727, 669.855 522.234 C 671.700 523.823, 673.334 524.983, 673.484 524.812 C 673.635 524.640, 672.959 519.775, 671.981 514 C 671.003 508.225, 668.347 492.250, 666.080 478.500 C 647.280 364.508, 644.821 350.652, 642.424 345.233 C 638.946 337.368, 631.979 329.645, 624.678 325.562 C 612.423 318.709, 617.676 318.991, 504.040 319.079 C 420.548 319.144, 400.312 319.417, 395.103 320.547 M 188 402.318 C 188 402.677, 186.913 406.722, 185.584 411.307 C 174.942 448.031, 170.603 497.653, 174.487 538.205 C 177.684 571.568, 187.941 616.857, 193.756 623.283 C 196.403 626.208, 200.504 628, 204.551 628 C 208.055 628, 219.907 622.124, 233.222 613.785 C 240.717 609.091, 243.693 602.160, 241.073 595.500 C 240.576 594.237, 240.325 595.844, 240.393 599.864 C 240.498 606.106, 240.422 606.297, 236.403 609.864 C 229.735 615.782, 208.677 627.001, 204.252 626.993 C 200.297 626.986, 195.823 624.620, 193.503 621.308 C 189.567 615.688, 180.098 575.669, 176.986 551.500 C 171.046 505.360, 174.928 451.042, 187.124 409.654 C 188.234 405.889, 188.885 402.552, 188.571 402.238 C 188.257 401.924, 188 401.960, 188 402.318 M 478.500 526.001 C 362.724 526.559, 370.984 526.041, 358.500 533.527 C 346.682 540.614, 338.892 550.561, 334.305 564.422 C 331.995 571.403, 331.635 574.130, 331.658 584.500 C 331.679 594.642, 332.080 597.705, 334.246 604.284 C 339.110 619.055, 350.534 632.692, 363.318 638.985 C 375.873 645.166, 374.064 645.094, 508.618 644.745 C 643.382 644.395, 633.916 644.865, 647.132 637.876 C 679.210 620.911, 687.112 572.457, 662.407 544.215 C 656.752 537.750, 651.096 533.793, 641.719 529.741 L 634.500 526.622 608.500 526.061 C 594.200 525.752, 535.700 525.725, 478.500 526.001 M 374.263 528.503 C 361.271 531.349, 347.768 541.228, 340.839 552.957 C 338.825 556.366, 336.183 562.832, 334.968 567.327 C 333.068 574.353, 332.831 577.185, 333.278 587.500 C 333.859 600.924, 335.650 607.385, 341.405 616.820 C 347.977 627.597, 357.900 635.861, 369.539 640.252 L 375.500 642.500 502.284 642.769 C 615.050 643.008, 629.740 642.863, 635.151 641.461 C 653.335 636.749, 668.472 620.797, 673.614 600.928 C 676.047 591.525, 675.814 574.420, 673.138 566 C 667.728 548.974, 656.555 537.121, 639.474 530.290 L 632.500 527.500 506.500 527.318 C 403.169 527.169, 379.378 527.382, 374.263 528.503 M 601.500 566.388 C 599.850 567.108, 596.845 569.530, 594.823 571.771 C 587.051 580.381, 588.805 594.217, 598.511 600.867 C 610.038 608.765, 624.564 603.452, 628.961 589.729 C 631.403 582.108, 627.071 572.015, 619.354 567.343 C 614.923 564.661, 606.490 564.210, 601.500 566.388 M 602.500 567.388 C 597.792 569.442, 592.317 576.163, 591.523 580.862 C 590.139 589.055, 593.027 595.793, 599.751 600.057 C 610.551 606.906, 624.389 601.561, 627.492 589.343 C 628.950 583.601, 628.125 579.299, 624.525 573.858 C 620.042 567.085, 609.972 564.126, 602.500 567.388" stroke="none" fill="#203e52" fill-rule="evenodd"/><path d="" stroke="none" fill="#04c5d3" fill-rule="evenodd"/><path d="" stroke="none" fill="#1b577a" fill-rule="evenodd"/></svg>